<svg width="44" height="43" viewBox="0 0 44 43" fill="none" xmlns="http://www.w3.org/2000/svg">
<path d="M21.9453 42.8482C33.7351 42.8482 43.2925 33.2907 43.2925 21.501C43.2925 9.71127 33.7351 0.153809 21.9453 0.153809C10.1556 0.153809 0.598145 9.71127 0.598145 21.501C0.598145 33.2907 10.1556 42.8482 21.9453 42.8482Z" fill="#009688"/>
<path d="M13.6182 22.9912V28.001H11.9307V15.2041H16.6504C18.0508 15.2041 19.1465 15.5615 19.9375 16.2764C20.7344 16.9912 21.1328 17.9375 21.1328 19.1152C21.1328 20.3574 20.7432 21.3154 19.9639 21.9893C19.1904 22.6572 18.0801 22.9912 16.6328 22.9912H13.6182ZM13.6182 21.6113H16.6504C17.5527 21.6113 18.2441 21.4004 18.7246 20.9785C19.2051 20.5508 19.4453 19.9355 19.4453 19.1328C19.4453 18.3711 19.2051 17.7617 18.7246 17.3047C18.2441 16.8477 17.585 16.6104 16.7471 16.5928H13.6182V21.6113ZM27.6807 22.6309L30.625 15.2041H32.585L28.0586 25.8652C27.7539 26.5449 27.4697 27.0283 27.2061 27.3154C26.9424 27.5967 26.6318 27.8135 26.2744 27.9658C25.9229 28.1123 25.4805 28.1855 24.9473 28.1855C24.4844 28.1855 24.1885 28.1592 24.0596 28.1064L24.1123 26.7705L24.9121 26.8057C25.5273 26.8057 25.9844 26.5098 26.2832 25.918L26.5029 25.4609L26.8369 24.6787L22.4775 15.2041H24.3672L27.6807 22.6309Z" fill="white"/>
</svg>
