<svg width="851" height="118" viewBox="0 0 851 118" fill="none" xmlns="http://www.w3.org/2000/svg">
<path d="M16.3347 31.561H11.2947V44.251H4.04973V12.751H11.2947V25.486H16.5147L24.7947 12.751H32.4897L22.1847 27.961L32.8047 44.251H24.5247L16.3347 31.561ZM51.118 44.791C47.848 44.791 44.893 44.086 42.253 42.676C39.643 41.266 37.588 39.331 36.088 36.871C34.618 34.381 33.883 31.591 33.883 28.501C33.883 25.411 34.618 22.636 36.088 20.176C37.588 17.686 39.643 15.736 42.253 14.326C44.893 12.916 47.848 12.211 51.118 12.211C54.388 12.211 57.328 12.916 59.938 14.326C62.548 15.736 64.603 17.686 66.103 20.176C67.603 22.636 68.353 25.411 68.353 28.501C68.353 31.591 67.603 34.381 66.103 36.871C64.603 39.331 62.548 41.266 59.938 42.676C57.328 44.086 54.388 44.791 51.118 44.791ZM51.118 38.581C52.978 38.581 54.658 38.161 56.158 37.321C57.658 36.451 58.828 35.251 59.668 33.721C60.538 32.191 60.973 30.451 60.973 28.501C60.973 26.551 60.538 24.811 59.668 23.281C58.828 21.751 57.658 20.566 56.158 19.726C54.658 18.856 52.978 18.421 51.118 18.421C49.258 18.421 47.578 18.856 46.078 19.726C44.578 20.566 43.393 21.751 42.523 23.281C41.683 24.811 41.263 26.551 41.263 28.501C41.263 30.451 41.683 32.191 42.523 33.721C43.393 35.251 44.578 36.451 46.078 37.321C47.578 38.161 49.258 38.581 51.118 38.581ZM88.9088 12.211C91.6988 12.211 94.1438 12.766 96.2438 13.876C98.3738 14.986 100.024 16.621 101.194 18.781C102.364 20.911 102.949 23.491 102.949 26.521V44.251H95.6138V25.891C95.6138 23.431 95.0138 21.571 93.8138 20.311C92.6138 19.051 90.9788 18.421 88.9088 18.421C86.8088 18.421 85.1438 19.051 83.9138 20.311C82.7138 21.571 82.1138 23.431 82.1138 25.891V44.251H71.1788L71.1338 38.311H74.7788V26.521C74.7788 23.491 75.3638 20.911 76.5338 18.781C77.7038 16.621 79.3538 14.986 81.4838 13.876C83.6138 12.766 86.0888 12.211 88.9088 12.211ZM125.034 44.791C121.764 44.791 118.809 44.086 116.169 42.676C113.559 41.266 111.504 39.331 110.004 36.871C108.534 34.381 107.799 31.591 107.799 28.501C107.799 25.411 108.534 22.636 110.004 20.176C111.504 17.686 113.559 15.736 116.169 14.326C118.809 12.916 121.764 12.211 125.034 12.211C128.304 12.211 131.244 12.916 133.854 14.326C136.464 15.736 138.519 17.686 140.019 20.176C141.519 22.636 142.269 25.411 142.269 28.501C142.269 31.591 141.519 34.381 140.019 36.871C138.519 39.331 136.464 41.266 133.854 42.676C131.244 44.086 128.304 44.791 125.034 44.791ZM125.034 38.581C126.894 38.581 128.574 38.161 130.074 37.321C131.574 36.451 132.744 35.251 133.584 33.721C134.454 32.191 134.889 30.451 134.889 28.501C134.889 26.551 134.454 24.811 133.584 23.281C132.744 21.751 131.574 20.566 130.074 19.726C128.574 18.856 126.894 18.421 125.034 18.421C123.174 18.421 121.494 18.856 119.994 19.726C118.494 20.566 117.309 21.751 116.439 23.281C115.599 24.811 115.179 26.551 115.179 28.501C115.179 30.451 115.599 32.191 116.439 33.721C117.309 35.251 118.494 36.451 119.994 37.321C121.494 38.161 123.174 38.581 125.034 38.581ZM176.55 44.251L176.505 25.396L167.235 40.921H163.995L154.725 25.756V44.251H147.885V12.751H153.915L165.705 32.326L177.315 12.751H183.345L183.39 44.251H176.55ZM219.205 12.751V44.251H212.14V40.426C209.98 43.336 206.8 44.791 202.6 44.791C198.88 44.791 195.97 43.621 193.87 41.281C191.8 38.911 190.765 35.551 190.765 31.201V12.751H198.055V30.976C198.055 33.496 198.64 35.401 199.81 36.691C201.01 37.951 202.63 38.581 204.67 38.581C206.86 38.581 208.615 37.906 209.935 36.556C211.255 35.176 211.915 33.151 211.915 30.481V12.751H219.205ZM254.845 12.751V44.251H247.78V40.426C245.62 43.336 242.44 44.791 238.24 44.791C234.52 44.791 231.61 43.621 229.51 41.281C227.44 38.911 226.405 35.551 226.405 31.201V12.751H233.695V30.976C233.695 33.496 234.28 35.401 235.45 36.691C236.65 37.951 238.27 38.581 240.31 38.581C242.5 38.581 244.255 37.906 245.575 36.556C246.895 35.176 247.555 33.151 247.555 30.481V12.751H254.845ZM240.85 10.726C235.09 10.726 232.18 8.43103 232.12 3.84103H237.115C237.175 6.03104 238.42 7.12604 240.85 7.12604C242.05 7.12604 242.965 6.85604 243.595 6.31604C244.225 5.74604 244.555 4.92104 244.585 3.84103H249.58C249.55 6.09104 248.815 7.80104 247.375 8.97104C245.935 10.141 243.76 10.726 240.85 10.726ZM277.389 44.791C274.179 44.791 271.269 44.101 268.659 42.721C266.079 41.311 264.039 39.376 262.539 36.916C261.069 34.426 260.334 31.621 260.334 28.501C260.334 25.381 261.069 22.591 262.539 20.131C264.039 17.641 266.079 15.706 268.659 14.326C271.269 12.916 274.194 12.211 277.434 12.211C280.164 12.211 282.624 12.691 284.814 13.651C287.034 14.611 288.894 15.991 290.394 17.791L285.714 22.111C283.584 19.651 280.944 18.421 277.794 18.421C275.844 18.421 274.104 18.856 272.574 19.726C271.044 20.566 269.844 21.751 268.974 23.281C268.134 24.811 267.714 26.551 267.714 28.501C267.714 30.451 268.134 32.191 268.974 33.721C269.844 35.251 271.044 36.451 272.574 37.321C274.104 38.161 275.844 38.581 277.794 38.581C280.944 38.581 283.584 37.336 285.714 34.846L290.394 39.166C288.894 40.996 287.034 42.391 284.814 43.351C282.594 44.311 280.119 44.791 277.389 44.791ZM309.867 22.246C313.647 22.246 316.632 23.221 318.822 25.171C321.042 27.121 322.152 29.851 322.152 33.361C322.152 37.021 320.922 39.856 318.462 41.866C316.002 43.876 312.507 44.881 307.977 44.881C303.507 44.881 300.117 43.876 297.807 41.866C295.497 39.856 294.342 36.901 294.342 33.001V12.751H301.542V24.091C304.392 22.861 307.167 22.246 309.867 22.246ZM308.292 39.211C310.362 39.211 311.967 38.716 313.107 37.726C314.247 36.736 314.817 35.356 314.817 33.586C314.817 31.756 314.202 30.346 312.972 29.356C311.772 28.336 310.167 27.826 308.157 27.826C307.047 27.826 305.907 28.006 304.737 28.366C303.567 28.696 302.502 29.176 301.542 29.806V32.821C301.542 34.861 302.127 36.436 303.297 37.546C304.467 38.656 306.132 39.211 308.292 39.211ZM339.64 31.561H334.6V44.251H327.355V12.751H334.6V25.486H339.82L348.1 12.751H355.795L345.49 27.961L356.11 44.251H347.83L339.64 31.561ZM387.515 12.751V44.251H380.45V40.426C378.29 43.336 375.11 44.791 370.91 44.791C367.19 44.791 364.28 43.621 362.18 41.281C360.11 38.911 359.075 35.551 359.075 31.201V12.751H366.365V30.976C366.365 33.496 366.95 35.401 368.12 36.691C369.32 37.951 370.94 38.581 372.98 38.581C375.17 38.581 376.925 37.906 378.245 36.556C379.565 35.176 380.225 33.151 380.225 30.481V12.751H387.515ZM423.155 12.751V44.251H416.09V40.426C413.93 43.336 410.75 44.791 406.55 44.791C402.83 44.791 399.92 43.621 397.82 41.281C395.75 38.911 394.715 35.551 394.715 31.201V12.751H402.005V30.976C402.005 33.496 402.59 35.401 403.76 36.691C404.96 37.951 406.58 38.581 408.62 38.581C410.81 38.581 412.565 37.906 413.885 36.556C415.205 35.176 415.865 33.151 415.865 30.481V12.751H423.155ZM409.16 10.726C403.4 10.726 400.49 8.43103 400.43 3.84103H405.425C405.485 6.03104 406.73 7.12604 409.16 7.12604C410.36 7.12604 411.275 6.85604 411.905 6.31604C412.535 5.74604 412.865 4.92104 412.895 3.84103H417.89C417.86 6.09104 417.125 7.80104 415.685 8.97104C414.245 10.141 412.07 10.726 409.16 10.726ZM472.259 12.751V44.251H465.014V18.691H450.794V44.251H443.549V12.751H472.259ZM495.097 44.791C491.827 44.791 488.872 44.086 486.232 42.676C483.622 41.266 481.567 39.331 480.067 36.871C478.597 34.381 477.862 31.591 477.862 28.501C477.862 25.411 478.597 22.636 480.067 20.176C481.567 17.686 483.622 15.736 486.232 14.326C488.872 12.916 491.827 12.211 495.097 12.211C498.367 12.211 501.307 12.916 503.917 14.326C506.527 15.736 508.582 17.686 510.082 20.176C511.582 22.636 512.332 25.411 512.332 28.501C512.332 31.591 511.582 34.381 510.082 36.871C508.582 39.331 506.527 41.266 503.917 42.676C501.307 44.086 498.367 44.791 495.097 44.791ZM495.097 38.581C496.957 38.581 498.637 38.161 500.137 37.321C501.637 36.451 502.807 35.251 503.647 33.721C504.517 32.191 504.952 30.451 504.952 28.501C504.952 26.551 504.517 24.811 503.647 23.281C502.807 21.751 501.637 20.566 500.137 19.726C498.637 18.856 496.957 18.421 495.097 18.421C493.237 18.421 491.557 18.856 490.057 19.726C488.557 20.566 487.372 21.751 486.502 23.281C485.662 24.811 485.242 26.551 485.242 28.501C485.242 30.451 485.662 32.191 486.502 33.721C487.372 35.251 488.557 36.451 490.057 37.321C491.557 38.161 493.237 38.581 495.097 38.581ZM532.888 12.211C535.678 12.211 538.123 12.766 540.223 13.876C542.353 14.986 544.003 16.621 545.173 18.781C546.343 20.911 546.928 23.491 546.928 26.521V44.251H539.593V25.891C539.593 23.431 538.993 21.571 537.793 20.311C536.593 19.051 534.958 18.421 532.888 18.421C530.788 18.421 529.123 19.051 527.893 20.311C526.693 21.571 526.093 23.431 526.093 25.891V44.251H515.158L515.113 38.311H518.758V26.521C518.758 23.491 519.343 20.911 520.513 18.781C521.683 16.621 523.333 14.986 525.463 13.876C527.593 12.766 530.068 12.211 532.888 12.211ZM553.983 12.751H561.228V44.251H553.983V12.751ZM592.727 21.571C590.027 20.011 587.132 19.006 584.042 18.556V44.251H576.752V18.556C573.662 19.006 570.752 20.011 568.022 21.571L565.547 16.126C567.707 14.836 570.047 13.861 572.567 13.201C575.087 12.541 577.682 12.211 580.352 12.211C583.052 12.211 585.662 12.541 588.182 13.201C590.732 13.861 593.072 14.836 595.202 16.126L592.727 21.571ZM624.675 41.551C623.175 42.571 621.285 43.366 619.005 43.936C616.755 44.506 614.355 44.791 611.805 44.791C608.625 44.791 605.925 44.401 603.705 43.621C601.485 42.811 599.805 41.701 598.665 40.291C597.525 38.851 596.955 37.216 596.955 35.386C596.955 33.706 597.42 32.221 598.35 30.931C599.28 29.641 600.555 28.681 602.175 28.051C600.945 27.391 599.985 26.491 599.295 25.351C598.635 24.211 598.305 22.936 598.305 21.526C598.305 19.816 598.83 18.256 599.88 16.846C600.93 15.436 602.52 14.311 604.65 13.471C606.78 12.631 609.39 12.211 612.48 12.211C614.52 12.211 616.515 12.421 618.465 12.841C620.415 13.231 622.11 13.771 623.55 14.461L621.525 20.041C618.765 18.751 615.84 18.106 612.75 18.106C610.41 18.106 608.64 18.466 607.44 19.186C606.27 19.876 605.685 20.821 605.685 22.021C605.685 23.131 606.075 23.986 606.855 24.586C607.665 25.156 608.88 25.441 610.5 25.441H619.095V31.201H610.05C608.22 31.201 606.81 31.516 605.82 32.146C604.83 32.776 604.335 33.691 604.335 34.891C604.335 36.151 604.965 37.141 606.225 37.861C607.515 38.551 609.48 38.896 612.12 38.896C613.98 38.896 615.84 38.656 617.7 38.176C619.56 37.666 621.135 36.961 622.425 36.061L624.675 41.551ZM634.624 12.751L641.149 22.291L647.674 12.751H656.224L645.739 27.826L657.079 44.251H648.484L641.149 33.811L633.904 44.251H625.489L636.739 28.141L626.209 12.751H634.624ZM689.309 12.751V44.251H682.019V31.336H667.709V44.251H660.419V12.751H667.709V25.171H682.019V12.751H689.309ZM697.201 12.751H704.446V44.251H697.201V12.751ZM737.271 12.751V44.251H730.071V32.911C727.341 33.901 724.806 34.396 722.466 34.396C718.236 34.396 714.996 33.391 712.746 31.381C710.496 29.341 709.371 26.416 709.371 22.606V12.751H716.571V21.796C716.571 23.956 717.141 25.591 718.281 26.701C719.451 27.781 721.131 28.321 723.321 28.321C725.721 28.321 727.971 27.856 730.071 26.926V12.751H737.271ZM773.992 12.751V44.251H766.702V31.336H752.392V44.251H745.102V12.751H752.392V25.171H766.702V12.751H773.992ZM809.874 12.751V44.251H802.809V40.426C800.649 43.336 797.469 44.791 793.269 44.791C789.549 44.791 786.639 43.621 784.539 41.281C782.469 38.911 781.434 35.551 781.434 31.201V12.751H788.724V30.976C788.724 33.496 789.309 35.401 790.479 36.691C791.679 37.951 793.299 38.581 795.339 38.581C797.529 38.581 799.284 37.906 800.604 36.556C801.924 35.176 802.584 33.151 802.584 30.481V12.751H809.874ZM845.514 12.751V44.251H838.449V40.426C836.289 43.336 833.109 44.791 828.909 44.791C825.189 44.791 822.279 43.621 820.179 41.281C818.109 38.911 817.074 35.551 817.074 31.201V12.751H824.364V30.976C824.364 33.496 824.949 35.401 826.119 36.691C827.319 37.951 828.939 38.581 830.979 38.581C833.169 38.581 834.924 37.906 836.244 36.556C837.564 35.176 838.224 33.151 838.224 30.481V12.751H845.514ZM831.519 10.726C825.759 10.726 822.849 8.43103 822.789 3.84103H827.784C827.844 6.03104 829.089 7.12604 831.519 7.12604C832.719 7.12604 833.634 6.85604 834.264 6.31604C834.894 5.74604 835.224 4.92104 835.254 3.84103H840.249C840.219 6.09104 839.484 7.80104 838.044 8.97104C836.604 10.141 834.429 10.726 831.519 10.726Z" fill="#4B4453"/>
<path d="M161.69 74.7277C165.68 74.7277 169.175 75.4327 172.175 76.8427C175.175 78.2227 177.47 80.1427 179.06 82.6027C180.68 85.0627 181.49 87.8527 181.49 90.9727C181.49 94.0927 180.68 96.8827 179.06 99.3427C177.47 101.803 175.175 103.738 172.175 105.148C169.175 106.528 165.68 107.218 161.69 107.218C157.67 107.218 154.16 106.528 151.16 105.148C148.19 103.738 145.895 101.803 144.275 99.3427C142.685 96.8827 141.89 94.0927 141.89 90.9727C141.89 87.8527 142.685 85.0627 144.275 82.6027C145.895 80.1427 148.19 78.2227 151.16 76.8427C154.16 75.4327 157.67 74.7277 161.69 74.7277ZM149 90.9727C149 93.6127 149.795 95.8177 151.385 97.5877C153.005 99.3577 155.315 100.483 158.315 100.963V81.0277C155.315 81.5077 153.005 82.6327 151.385 84.4027C149.795 86.1427 149 88.3327 149 90.9727ZM165.065 100.963C168.065 100.483 170.36 99.3577 171.95 97.5877C173.57 95.8177 174.38 93.6127 174.38 90.9727C174.38 88.3327 173.57 86.1427 171.95 84.4027C170.36 82.6327 168.065 81.5077 165.065 81.0277V100.963ZM201.069 74.6827C203.979 74.6827 206.514 75.2527 208.674 76.3927C210.834 77.5327 212.514 79.2127 213.714 81.4327C214.914 83.6527 215.514 86.3377 215.514 89.4877V106.723H208.224V99.1627H193.824V106.723H186.624V89.4877C186.624 86.3377 187.224 83.6527 188.424 81.4327C189.624 79.2127 191.304 77.5327 193.464 76.3927C195.624 75.2527 198.159 74.6827 201.069 74.6827ZM208.224 93.3127V88.8127C208.224 86.2027 207.579 84.2377 206.289 82.9177C204.999 81.5677 203.244 80.8927 201.024 80.8927C198.774 80.8927 197.004 81.5677 195.714 82.9177C194.454 84.2377 193.824 86.2027 193.824 88.8127V93.3127H208.224ZM228.12 75.2227L234.645 84.7627L241.17 75.2227H249.72L239.235 90.2977L250.575 106.723H241.98L234.645 96.2827L227.4 106.723H218.985L230.235 90.6127L219.705 75.2227H228.12ZM268.813 107.263C265.543 107.263 262.588 106.558 259.948 105.148C257.338 103.738 255.283 101.803 253.783 99.3427C252.313 96.8527 251.578 94.0627 251.578 90.9727C251.578 87.8827 252.313 85.1077 253.783 82.6477C255.283 80.1577 257.338 78.2077 259.948 76.7977C262.588 75.3877 265.543 74.6827 268.813 74.6827C272.083 74.6827 275.023 75.3877 277.633 76.7977C280.243 78.2077 282.298 80.1577 283.798 82.6477C285.298 85.1077 286.048 87.8827 286.048 90.9727C286.048 94.0627 285.298 96.8527 283.798 99.3427C282.298 101.803 280.243 103.738 277.633 105.148C275.023 106.558 272.083 107.263 268.813 107.263ZM268.813 101.053C270.673 101.053 272.353 100.633 273.853 99.7927C275.353 98.9227 276.523 97.7227 277.363 96.1927C278.233 94.6627 278.668 92.9227 278.668 90.9727C278.668 89.0227 278.233 87.2827 277.363 85.7527C276.523 84.2227 275.353 83.0377 273.853 82.1977C272.353 81.3277 270.673 80.8927 268.813 80.8927C266.953 80.8927 265.273 81.3277 263.773 82.1977C262.273 83.0377 261.088 84.2227 260.218 85.7527C259.378 87.2827 258.958 89.0227 258.958 90.9727C258.958 92.9227 259.378 94.6627 260.218 96.1927C261.088 97.7227 262.273 98.9227 263.773 99.7927C265.273 100.633 266.953 101.053 268.813 101.053ZM313.489 90.2977C315.409 90.8677 316.879 91.7977 317.899 93.0877C318.919 94.3777 319.429 95.9677 319.429 97.8577C319.429 100.648 318.364 102.823 316.234 104.383C314.134 105.943 311.119 106.723 307.189 106.723H291.664V75.2227H306.334C309.994 75.2227 312.844 75.9277 314.884 77.3377C316.924 78.7477 317.944 80.7577 317.944 83.3677C317.944 84.9277 317.554 86.3077 316.774 87.5077C315.994 88.6777 314.899 89.6077 313.489 90.2977ZM298.909 88.2727H305.704C307.294 88.2727 308.494 87.9577 309.304 87.3277C310.114 86.6677 310.519 85.7077 310.519 84.4477C310.519 83.2177 310.099 82.2727 309.259 81.6127C308.449 80.9527 307.264 80.6227 305.704 80.6227H298.909V88.2727ZM306.919 101.323C310.339 101.323 312.049 99.9727 312.049 97.2727C312.049 94.6627 310.339 93.3577 306.919 93.3577H298.909V101.323H306.919ZM353.184 75.2227V106.723H346.119V102.898C343.959 105.808 340.779 107.263 336.579 107.263C332.859 107.263 329.949 106.093 327.849 103.753C325.779 101.383 324.744 98.0227 324.744 93.6727V75.2227H332.034V93.4477C332.034 95.9677 332.619 97.8727 333.789 99.1627C334.989 100.423 336.609 101.053 338.649 101.053C340.839 101.053 342.594 100.378 343.914 99.0277C345.234 97.6477 345.894 95.6227 345.894 92.9527V75.2227H353.184ZM388.824 75.2227V106.723H381.759V102.898C379.599 105.808 376.419 107.263 372.219 107.263C368.499 107.263 365.589 106.093 363.489 103.753C361.419 101.383 360.384 98.0227 360.384 93.6727V75.2227H367.674V93.4477C367.674 95.9677 368.259 97.8727 369.429 99.1627C370.629 100.423 372.249 101.053 374.289 101.053C376.479 101.053 378.234 100.378 379.554 99.0277C380.874 97.6477 381.534 95.6227 381.534 92.9527V75.2227H388.824ZM374.829 73.1977C369.069 73.1977 366.159 70.9027 366.099 66.3127H371.094C371.154 68.5027 372.399 69.5977 374.829 69.5977C376.029 69.5977 376.944 69.3277 377.574 68.7877C378.204 68.2177 378.534 67.3927 378.564 66.3127H383.559C383.529 68.5627 382.794 70.2727 381.354 71.4427C379.914 72.6127 377.739 73.1977 374.829 73.1977ZM421.413 94.0327H416.373V106.723H409.128V75.2227H416.373V87.9577H421.593L429.873 75.2227H437.568L427.263 90.4327L437.883 106.723H429.603L421.413 94.0327ZM456.196 107.263C452.926 107.263 449.971 106.558 447.331 105.148C444.721 103.738 442.666 101.803 441.166 99.3427C439.696 96.8527 438.961 94.0627 438.961 90.9727C438.961 87.8827 439.696 85.1077 441.166 82.6477C442.666 80.1577 444.721 78.2077 447.331 76.7977C449.971 75.3877 452.926 74.6827 456.196 74.6827C459.466 74.6827 462.406 75.3877 465.016 76.7977C467.626 78.2077 469.681 80.1577 471.181 82.6477C472.681 85.1077 473.431 87.8827 473.431 90.9727C473.431 94.0627 472.681 96.8527 471.181 99.3427C469.681 101.803 467.626 103.738 465.016 105.148C462.406 106.558 459.466 107.263 456.196 107.263ZM456.196 101.053C458.056 101.053 459.736 100.633 461.236 99.7927C462.736 98.9227 463.906 97.7227 464.746 96.1927C465.616 94.6627 466.051 92.9227 466.051 90.9727C466.051 89.0227 465.616 87.2827 464.746 85.7527C463.906 84.2227 462.736 83.0377 461.236 82.1977C459.736 81.3277 458.056 80.8927 456.196 80.8927C454.336 80.8927 452.656 81.3277 451.156 82.1977C449.656 83.0377 448.471 84.2227 447.601 85.7527C446.761 87.2827 446.341 89.0227 446.341 90.9727C446.341 92.9227 446.761 94.6627 447.601 96.1927C448.471 97.7227 449.656 98.9227 451.156 99.7927C452.656 100.633 454.336 101.053 456.196 101.053ZM493.987 74.6827C496.777 74.6827 499.222 75.2377 501.322 76.3477C503.452 77.4577 505.102 79.0927 506.272 81.2527C507.442 83.3827 508.027 85.9627 508.027 88.9927V106.723H500.692V88.3627C500.692 85.9027 500.092 84.0427 498.892 82.7827C497.692 81.5227 496.057 80.8927 493.987 80.8927C491.887 80.8927 490.222 81.5227 488.992 82.7827C487.792 84.0427 487.192 85.9027 487.192 88.3627V106.723H476.257L476.212 100.783H479.857V88.9927C479.857 85.9627 480.442 83.3827 481.612 81.2527C482.782 79.0927 484.432 77.4577 486.562 76.3477C488.692 75.2377 491.167 74.6827 493.987 74.6827ZM540.334 104.023C538.834 105.043 536.944 105.838 534.664 106.408C532.414 106.978 530.014 107.263 527.464 107.263C524.284 107.263 521.584 106.873 519.364 106.093C517.144 105.283 515.464 104.173 514.324 102.763C513.184 101.323 512.614 99.6877 512.614 97.8577C512.614 96.1777 513.079 94.6927 514.009 93.4027C514.939 92.1127 516.214 91.1527 517.834 90.5227C516.604 89.8627 515.644 88.9627 514.954 87.8227C514.294 86.6827 513.964 85.4077 513.964 83.9977C513.964 82.2877 514.489 80.7277 515.539 79.3177C516.589 77.9077 518.179 76.7827 520.309 75.9427C522.439 75.1027 525.049 74.6827 528.139 74.6827C530.179 74.6827 532.174 74.8927 534.124 75.3127C536.074 75.7027 537.769 76.2427 539.209 76.9327L537.184 82.5127C534.424 81.2227 531.499 80.5777 528.409 80.5777C526.069 80.5777 524.299 80.9377 523.099 81.6577C521.929 82.3477 521.344 83.2927 521.344 84.4927C521.344 85.6027 521.734 86.4577 522.514 87.0577C523.324 87.6277 524.539 87.9127 526.159 87.9127H534.754V93.6727H525.709C523.879 93.6727 522.469 93.9877 521.479 94.6177C520.489 95.2477 519.994 96.1627 519.994 97.3627C519.994 98.6227 520.624 99.6127 521.884 100.333C523.174 101.023 525.139 101.368 527.779 101.368C529.639 101.368 531.499 101.128 533.359 100.648C535.219 100.138 536.794 99.4327 538.084 98.5327L540.334 104.023ZM578.449 100.783V113.248H571.699V106.723H548.659V113.248H541.909L541.954 100.783H545.734V88.9927C545.734 85.9627 546.334 83.3827 547.534 81.2527C548.734 79.0927 550.414 77.4577 552.574 76.3477C554.764 75.2377 557.299 74.6827 560.179 74.6827C563.059 74.6827 565.579 75.2377 567.739 76.3477C569.929 77.4577 571.624 79.0927 572.824 81.2527C574.024 83.3827 574.624 85.9627 574.624 88.9927V100.783H578.449ZM567.289 100.783V88.3627C567.289 85.9027 566.659 84.0427 565.399 82.7827C564.169 81.5227 562.429 80.8927 560.179 80.8927C557.959 80.8927 556.204 81.5227 554.914 82.7827C553.654 84.0427 553.024 85.9027 553.024 88.3627V100.783H567.289ZM611.992 94.0327H607.402V106.723H600.247V94.0327H595.567L588.502 106.723H580.087L589.537 90.2527L580.672 75.2227H588.367L595.432 87.9577H600.247V75.2227H607.402V87.9577H612.082L619.192 75.2227H626.887L618.067 90.2527L627.472 106.723H619.057L611.992 94.0327Z" fill="#4B4453"/>
</svg>
