<svg width="770" height="219" viewBox="0 0 770 219" fill="none" xmlns="http://www.w3.org/2000/svg">
<g filter="url(#filter0_b_220_671)">
<path d="M0.213379 30.7109C0.213379 14.1423 13.6448 0.710907 30.2134 0.710907H739.787C756.355 0.710907 769.787 14.1424 769.787 30.7109V188.199C769.787 204.768 756.355 218.199 739.787 218.199H30.2133C13.6448 218.199 0.213379 204.768 0.213379 188.199V30.7109Z" fill="white" fill-opacity="0.2"/>
<path d="M30.2134 1.21091H739.787C756.079 1.21091 769.287 14.4185 769.287 30.7109V188.199C769.287 204.491 756.079 217.699 739.787 217.699H30.2133C13.9209 217.699 0.713379 204.491 0.713379 188.199V30.7109C0.713379 14.4185 13.921 1.21091 30.2134 1.21091Z" stroke="#E3E3E3" stroke-opacity="0.4"/>
</g>
<path d="M193.952 129.758V174.558H185.76V136.798H162.528V174.558H154.336V129.758H193.952Z" fill="#4B4453"/>
<path d="M227.32 175.198C222.755 175.198 218.638 174.217 214.968 172.254C211.299 170.249 208.419 167.497 206.328 163.998C204.238 160.457 203.192 156.51 203.192 152.158C203.192 147.806 204.238 143.881 206.328 140.382C208.419 136.841 211.299 134.089 214.968 132.126C218.638 130.121 222.755 129.118 227.32 129.118C231.886 129.118 236.003 130.121 239.672 132.126C243.342 134.089 246.222 136.819 248.312 140.318C250.403 143.817 251.448 147.763 251.448 152.158C251.448 156.553 250.403 160.499 248.312 163.998C246.222 167.497 243.342 170.249 239.672 172.254C236.003 174.217 231.886 175.198 227.32 175.198ZM227.32 167.902C230.307 167.902 232.995 167.241 235.384 165.918C237.774 164.553 239.651 162.675 241.016 160.286C242.382 157.854 243.064 155.145 243.064 152.158C243.064 149.171 242.382 146.483 241.016 144.094C239.651 141.662 237.774 139.785 235.384 138.462C232.995 137.097 230.307 136.414 227.32 136.414C224.334 136.414 221.646 137.097 219.256 138.462C216.867 139.785 214.99 141.662 213.624 144.094C212.259 146.483 211.576 149.171 211.576 152.158C211.576 155.145 212.259 157.854 213.624 160.286C214.99 162.675 216.867 164.553 219.256 165.918C221.646 167.241 224.334 167.902 227.32 167.902Z" fill="#4B4453"/>
<path d="M280.807 129.118C284.69 129.118 288.082 129.907 290.983 131.486C293.884 133.022 296.124 135.283 297.703 138.27C299.324 141.257 300.135 144.883 300.135 149.15V174.558H291.751V148.382C291.751 144.457 290.77 141.491 288.807 139.486C286.887 137.438 284.22 136.414 280.807 136.414C277.351 136.414 274.642 137.438 272.679 139.486C270.716 141.491 269.735 144.457 269.735 148.382V174.558H256.167L256.103 167.518H261.415V149.15C261.415 144.883 262.204 141.257 263.783 138.27C265.404 135.241 267.666 132.958 270.567 131.422C273.511 129.886 276.924 129.118 280.807 129.118Z" fill="#4B4453"/>
<path d="M311.586 129.758H319.778V174.558H311.586V129.758Z" fill="#4B4453"/>
<path d="M364.461 140.894C360.237 138.505 355.842 137.054 351.277 136.542V174.558H342.957V136.542C338.349 137.054 333.933 138.505 329.709 140.894L326.829 134.494C329.816 132.702 333.016 131.358 336.429 130.462C339.885 129.566 343.426 129.118 347.053 129.118C350.68 129.118 354.221 129.566 357.677 130.462C361.133 131.358 364.354 132.702 367.341 134.494L364.461 140.894Z" fill="#4B4453"/>
<path d="M408.397 170.27C406.392 171.849 403.811 173.065 400.653 173.918C397.496 174.771 394.083 175.198 390.413 175.198C386.104 175.198 382.435 174.643 379.405 173.534C376.419 172.425 374.157 170.889 372.621 168.926C371.085 166.963 370.317 164.702 370.317 162.142C370.317 159.667 371 157.513 372.365 155.678C373.731 153.843 375.565 152.499 377.869 151.646C376.12 150.707 374.733 149.406 373.709 147.742C372.728 146.035 372.237 144.137 372.237 142.046C372.237 139.657 372.941 137.502 374.349 135.582C375.8 133.619 377.955 132.062 380.813 130.91C383.672 129.715 387.192 129.118 391.373 129.118C394.189 129.118 396.941 129.417 399.629 130.014C402.317 130.611 404.664 131.422 406.669 132.446L404.301 139.038C400.547 137.075 396.344 136.094 391.693 136.094C388.024 136.094 385.251 136.691 383.373 137.886C381.539 139.038 380.621 140.595 380.621 142.558C380.621 144.478 381.304 145.95 382.669 146.974C384.035 147.955 386.04 148.446 388.685 148.446H400.525V155.358H388.237C385.208 155.358 382.861 155.891 381.197 156.958C379.533 157.982 378.701 159.518 378.701 161.566C378.701 163.614 379.704 165.235 381.709 166.43C383.715 167.625 386.744 168.222 390.797 168.222C393.613 168.222 396.344 167.838 398.989 167.07C401.677 166.302 403.917 165.235 405.709 163.87L408.397 170.27Z" fill="#4B4453"/>
<path d="M420.518 129.758L431.078 144.734L441.638 129.758H451.366L436.326 151.262L452.582 174.558H442.726L431.078 158.238L419.494 174.558H409.894L426.086 151.582L410.918 129.758H420.518Z" fill="#4B4453"/>
<path d="M497.955 129.758V174.558H489.635V155.358H466.467V174.558H458.147V129.758H466.467V148.254H489.635V129.758H497.955Z" fill="#4B4453"/>
<path d="M510.586 129.758H518.778V174.558H510.586V129.758Z" fill="#4B4453"/>
<path d="M547.909 155.678H539.589V174.558H531.397V129.758H539.589V148.51H548.165L561.029 129.758H569.861L554.565 151.454L570.437 174.558H561.029L547.909 155.678Z" fill="#4B4453"/>
<path d="M595.911 129.118C599.922 129.118 603.42 129.907 606.407 131.486C609.394 133.065 611.698 135.411 613.319 138.526C614.983 141.598 615.815 145.331 615.815 149.726V174.558H607.495V163.038H584.199V174.558H576.007V149.726C576.007 145.331 576.818 141.598 578.439 138.526C580.103 135.411 582.428 133.065 585.415 131.486C588.402 129.907 591.9 129.118 595.911 129.118ZM607.495 156.062V148.958C607.495 144.819 606.471 141.705 604.423 139.614C602.375 137.481 599.516 136.414 595.847 136.414C592.178 136.414 589.319 137.481 587.271 139.614C585.223 141.705 584.199 144.819 584.199 148.958V156.062H607.495Z" fill="#4B4453"/>
<path d="M130.284 71.4719H121.964V90.3519H113.772V45.5519H121.964V64.3039H130.54L143.404 45.5519H152.236L136.94 67.2479L152.812 90.3519H143.404L130.284 71.4719Z" fill="#4B4453"/>
<path d="M179.07 90.9919C174.505 90.9919 170.388 90.0106 166.718 88.0479C163.049 86.0426 160.169 83.2906 158.078 79.7919C155.988 76.2506 154.942 72.3039 154.942 67.9519C154.942 63.5999 155.988 59.6746 158.078 56.1759C160.169 52.6346 163.049 49.8826 166.718 47.9199C170.388 45.9146 174.505 44.9119 179.07 44.9119C183.636 44.9119 187.753 45.9146 191.422 47.9199C195.092 49.8826 197.972 52.6133 200.062 56.1119C202.153 59.6106 203.198 63.5573 203.198 67.9519C203.198 72.3466 202.153 76.2933 200.062 79.7919C197.972 83.2906 195.092 86.0426 191.422 88.0479C187.753 90.0106 183.636 90.9919 179.07 90.9919ZM179.07 83.6959C182.057 83.6959 184.745 83.0346 187.134 81.7119C189.524 80.3466 191.401 78.4693 192.766 76.0799C194.132 73.6479 194.814 70.9386 194.814 67.9519C194.814 64.9653 194.132 62.2773 192.766 59.8879C191.401 57.4559 189.524 55.5786 187.134 54.2559C184.745 52.8906 182.057 52.2079 179.07 52.2079C176.084 52.2079 173.396 52.8906 171.006 54.2559C168.617 55.5786 166.74 57.4559 165.374 59.8879C164.009 62.2773 163.326 64.9653 163.326 67.9519C163.326 70.9386 164.009 73.6479 165.374 76.0799C166.74 78.4693 168.617 80.3466 171.006 81.7119C173.396 83.0346 176.084 83.6959 179.07 83.6959Z" fill="#4B4453"/>
<path d="M232.557 44.9119C236.44 44.9119 239.832 45.7013 242.733 47.2799C245.634 48.8159 247.874 51.0773 249.453 54.0639C251.074 57.0506 251.885 60.6773 251.885 64.9439V90.3519H243.501V64.1759C243.501 60.2506 242.52 57.2853 240.557 55.2799C238.637 53.2319 235.97 52.2079 232.557 52.2079C229.101 52.2079 226.392 53.2319 224.429 55.2799C222.466 57.2853 221.485 60.2506 221.485 64.1759V90.3519H207.917L207.853 83.3119H213.165V64.9439C213.165 60.6773 213.954 57.0506 215.533 54.0639C217.154 51.0346 219.416 48.7519 222.317 47.2159C225.261 45.6799 228.674 44.9119 232.557 44.9119Z" fill="#4B4453"/>
<path d="M284.008 90.9919C279.443 90.9919 275.325 90.0106 271.656 88.0479C267.987 86.0426 265.107 83.2906 263.016 79.7919C260.925 76.2506 259.88 72.3039 259.88 67.9519C259.88 63.5999 260.925 59.6746 263.016 56.1759C265.107 52.6346 267.987 49.8826 271.656 47.9199C275.325 45.9146 279.443 44.9119 284.008 44.9119C288.573 44.9119 292.691 45.9146 296.36 47.9199C300.029 49.8826 302.909 52.6133 305 56.1119C307.091 59.6106 308.136 63.5573 308.136 67.9519C308.136 72.3466 307.091 76.2933 305 79.7919C302.909 83.2906 300.029 86.0426 296.36 88.0479C292.691 90.0106 288.573 90.9919 284.008 90.9919ZM284.008 83.6959C286.995 83.6959 289.683 83.0346 292.072 81.7119C294.461 80.3466 296.339 78.4693 297.704 76.0799C299.069 73.6479 299.752 70.9386 299.752 67.9519C299.752 64.9653 299.069 62.2773 297.704 59.8879C296.339 57.4559 294.461 55.5786 292.072 54.2559C289.683 52.8906 286.995 52.2079 284.008 52.2079C281.021 52.2079 278.333 52.8906 275.944 54.2559C273.555 55.5786 271.677 57.4559 270.312 59.8879C268.947 62.2773 268.264 64.9653 268.264 67.9519C268.264 70.9386 268.947 73.6479 270.312 76.0799C271.677 78.4693 273.555 80.3466 275.944 81.7119C278.333 83.0346 281.021 83.6959 284.008 83.6959Z" fill="#4B4453"/>
<path d="M358.486 90.3519L358.422 60.6559L343.702 85.2319H339.99L325.27 61.0399V90.3519H317.398V45.5519H324.246L341.974 75.1839L359.51 45.5519H366.294L366.422 90.3519H358.486Z" fill="#4B4453"/>
<path d="M417.423 45.5519V90.3519H409.423V84.6559C406.394 88.8799 401.701 90.9919 395.343 90.9919C390.053 90.9919 385.893 89.3493 382.863 86.0639C379.834 82.7359 378.319 78.0426 378.319 71.9839V45.5519H386.639V71.6639C386.639 75.6319 387.578 78.6399 389.455 80.6879C391.375 82.6933 393.999 83.6959 397.327 83.6959C400.911 83.6959 403.77 82.6293 405.903 80.4959C408.037 78.3199 409.103 75.0986 409.103 70.8319V45.5519H417.423Z" fill="#4B4453"/>
<path d="M468.173 45.5519V90.3519H460.173V84.6559C457.144 88.8799 452.451 90.9919 446.093 90.9919C440.803 90.9919 436.643 89.3493 433.613 86.0639C430.584 82.7359 429.069 78.0426 429.069 71.9839V45.5519H437.389V71.6639C437.389 75.6319 438.328 78.6399 440.205 80.6879C442.125 82.6933 444.749 83.6959 448.077 83.6959C451.661 83.6959 454.52 82.6293 456.653 80.4959C458.787 78.3199 459.853 75.0986 459.853 70.8319V45.5519H468.173ZM448.973 42.5439C445.133 42.5439 442.232 41.7546 440.269 40.1759C438.349 38.5973 437.368 36.2933 437.325 33.2639H443.149C443.192 34.8426 443.704 36.0586 444.685 36.9119C445.667 37.7653 447.096 38.1919 448.973 38.1919C450.808 38.1919 452.237 37.7653 453.261 36.9119C454.328 36.0586 454.883 34.8426 454.925 33.2639H460.685C460.643 36.2506 459.619 38.5546 457.613 40.1759C455.651 41.7546 452.771 42.5439 448.973 42.5439Z" fill="#4B4453"/>
<path d="M501.067 90.9919C496.545 90.9919 492.449 90.0106 488.779 88.0479C485.153 86.0426 482.294 83.2906 480.203 79.7919C478.155 76.2933 477.131 72.3466 477.131 67.9519C477.131 63.5573 478.177 59.6106 480.267 56.1119C482.358 52.6133 485.217 49.8826 488.843 47.9199C492.513 45.9146 496.609 44.9119 501.131 44.9119C504.801 44.9119 508.15 45.5519 511.179 46.8319C514.209 48.1119 516.769 49.9679 518.859 52.3999L513.483 57.4559C510.241 53.9573 506.251 52.2079 501.515 52.2079C498.443 52.2079 495.691 52.8906 493.259 54.2559C490.827 55.5786 488.929 57.4346 487.563 59.8239C486.198 62.2133 485.515 64.9226 485.515 67.9519C485.515 70.9813 486.198 73.6906 487.563 76.0799C488.929 78.4693 490.827 80.3466 493.259 81.7119C495.691 83.0346 498.443 83.6959 501.515 83.6959C506.251 83.6959 510.241 81.9253 513.483 78.3839L518.859 83.5039C516.769 85.9359 514.187 87.792 511.115 89.0719C508.086 90.3519 504.737 90.9919 501.067 90.9919Z" fill="#4B4453"/>
<path d="M546.88 59.3119C550.208 59.3119 553.131 59.9306 555.648 61.1679C558.208 62.4053 560.192 64.2186 561.6 66.6079C563.051 68.9546 563.776 71.7706 563.776 75.0559C563.776 80.1333 562.069 84.1013 558.656 86.9599C555.285 89.776 550.507 91.1839 544.32 91.1839C538.176 91.1839 533.483 89.776 530.24 86.9599C527.04 84.1013 525.44 79.9626 525.44 74.5439V45.5519H533.632V62.5119C538.197 60.3786 542.613 59.3119 546.88 59.3119ZM544.64 84.3999C548.011 84.3999 550.635 83.5893 552.512 81.9679C554.432 80.3466 555.392 78.1279 555.392 75.3119C555.392 72.3679 554.389 70.0639 552.384 68.3999C550.379 66.7359 547.819 65.9039 544.704 65.9039C542.869 65.9039 540.992 66.2239 539.072 66.8639C537.152 67.5039 535.339 68.4426 533.632 69.6799V74.2879C533.632 77.5306 534.592 80.0266 536.512 81.7759C538.432 83.5253 541.141 84.3999 544.64 84.3999Z" fill="#4B4453"/>
<path d="M588.846 71.4719H580.526V90.3519H572.334V45.5519H580.526V64.3039H589.102L601.966 45.5519H610.798L595.502 67.2479L611.374 90.3519H601.966L588.846 71.4719Z" fill="#4B4453"/>
<path d="M636.849 44.9119C640.859 44.9119 644.358 45.7013 647.344 47.2799C650.331 48.8586 652.635 51.2053 654.256 54.3199C655.92 57.3919 656.753 61.1253 656.753 65.5199V90.3519H648.432V78.8319H625.136V90.3519H616.944V65.5199C616.944 61.1253 617.755 57.3919 619.376 54.3199C621.04 51.2053 623.366 48.8586 626.352 47.2799C629.339 45.7013 632.838 44.9119 636.849 44.9119ZM648.432 71.8559V64.7519C648.432 60.6133 647.408 57.4986 645.36 55.4079C643.312 53.2746 640.454 52.2079 636.784 52.2079C633.115 52.2079 630.256 53.2746 628.208 55.4079C626.161 57.4986 625.136 60.6133 625.136 64.7519V71.8559H648.432Z" fill="#4B4453"/>
<defs>
<filter id="filter0_b_220_671" x="-14.7866" y="-14.2891" width="799.573" height="247.488" filterUnits="userSpaceOnUse" color-interpolation-filters="sRGB">
<feFlood flood-opacity="0" result="BackgroundImageFix"/>
<feGaussianBlur in="BackgroundImage" stdDeviation="7.5"/>
<feComposite in2="SourceAlpha" operator="in" result="effect1_backgroundBlur_220_671"/>
<feBlend mode="normal" in="SourceGraphic" in2="effect1_backgroundBlur_220_671" result="shape"/>
</filter>
</defs>
</svg>
