<svg width="544" height="143" viewBox="0 0 544 143" fill="none" xmlns="http://www.w3.org/2000/svg">
<path d="M80.6767 97.2898V142.09H72.4847V104.33H49.2527V142.09H41.0607V97.2898H80.6767Z" fill="#4B4453"/>
<path d="M114.045 142.73C109.48 142.73 105.363 141.748 101.693 139.786C98.0239 137.78 95.1439 135.028 93.0532 131.53C90.9625 127.988 89.9172 124.042 89.9172 119.69C89.9172 115.338 90.9625 111.412 93.0532 107.914C95.1439 104.372 98.0239 101.62 101.693 99.6578C105.363 97.6525 109.48 96.6498 114.045 96.6498C118.611 96.6498 122.728 97.6525 126.397 99.6578C130.067 101.62 132.947 104.351 135.037 107.85C137.128 111.348 138.173 115.295 138.173 119.69C138.173 124.084 137.128 128.031 135.037 131.53C132.947 135.028 130.067 137.78 126.397 139.786C122.728 141.748 118.611 142.73 114.045 142.73ZM114.045 135.434C117.032 135.434 119.72 134.772 122.109 133.45C124.499 132.084 126.376 130.207 127.741 127.818C129.107 125.386 129.789 122.676 129.789 119.69C129.789 116.703 129.107 114.015 127.741 111.626C126.376 109.194 124.499 107.316 122.109 105.994C119.72 104.628 117.032 103.946 114.045 103.946C111.059 103.946 108.371 104.628 105.981 105.994C103.592 107.316 101.715 109.194 100.349 111.626C98.9839 114.015 98.3012 116.703 98.3012 119.69C98.3012 122.676 98.9839 125.386 100.349 127.818C101.715 130.207 103.592 132.084 105.981 133.45C108.371 134.772 111.059 135.434 114.045 135.434Z" fill="#4B4453"/>
<path d="M167.532 96.6498C171.414 96.6498 174.806 97.4392 177.708 99.0178C180.609 100.554 182.849 102.815 184.428 105.802C186.049 108.788 186.86 112.415 186.86 116.682V142.09H178.476V115.914C178.476 111.988 177.494 109.023 175.532 107.018C173.612 104.97 170.945 103.946 167.532 103.946C164.076 103.946 161.366 104.97 159.404 107.018C157.441 109.023 156.46 111.988 156.46 115.914V142.09H142.892L142.828 135.05H148.14V116.682C148.14 112.415 148.929 108.788 150.508 105.802C152.129 102.772 154.39 100.49 157.292 98.9538C160.236 97.4178 163.649 96.6498 167.532 96.6498Z" fill="#4B4453"/>
<path d="M198.311 97.2898H206.503V142.09H198.311V97.2898Z" fill="#4B4453"/>
<path d="M251.186 108.426C246.962 106.036 242.567 104.586 238.002 104.074V142.09H229.682V104.074C225.074 104.586 220.658 106.036 216.434 108.426L213.554 102.026C216.54 100.234 219.74 98.8898 223.154 97.9938C226.61 97.0978 230.151 96.6498 233.778 96.6498C237.404 96.6498 240.946 97.0978 244.402 97.9938C247.858 98.8898 251.079 100.234 254.066 102.026L251.186 108.426Z" fill="#4B4453"/>
<path d="M295.122 137.802C293.117 139.38 290.536 140.596 287.378 141.45C284.221 142.303 280.808 142.73 277.138 142.73C272.829 142.73 269.16 142.175 266.13 141.066C263.144 139.956 260.882 138.42 259.346 136.458C257.81 134.495 257.042 132.234 257.042 129.674C257.042 127.199 257.725 125.044 259.09 123.21C260.456 121.375 262.29 120.031 264.594 119.178C262.845 118.239 261.458 116.938 260.434 115.274C259.453 113.567 258.962 111.668 258.962 109.578C258.962 107.188 259.666 105.034 261.074 103.114C262.525 101.151 264.68 99.5938 267.538 98.4418C270.397 97.2472 273.917 96.6498 278.098 96.6498C280.914 96.6498 283.666 96.9485 286.354 97.5458C289.042 98.1432 291.389 98.9538 293.394 99.9778L291.026 106.57C287.272 104.607 283.069 103.626 278.418 103.626C274.749 103.626 271.976 104.223 270.098 105.418C268.264 106.57 267.346 108.127 267.346 110.09C267.346 112.01 268.029 113.482 269.394 114.506C270.76 115.487 272.765 115.978 275.41 115.978H287.25V122.89H274.962C271.933 122.89 269.586 123.423 267.922 124.49C266.258 125.514 265.426 127.05 265.426 129.098C265.426 131.146 266.429 132.767 268.434 133.962C270.44 135.156 273.469 135.754 277.522 135.754C280.338 135.754 283.069 135.37 285.714 134.602C288.402 133.834 290.642 132.767 292.434 131.402L295.122 137.802Z" fill="#4B4453"/>
<path d="M307.243 97.2898L317.803 112.266L328.363 97.2898H338.091L323.051 118.794L339.307 142.09H329.451L317.803 125.77L306.219 142.09H296.619L312.811 119.114L297.643 97.2898H307.243Z" fill="#4B4453"/>
<path d="M384.68 97.2898V142.09H376.36V122.89H353.192V142.09H344.872V97.2898H353.192V115.786H376.36V97.2898H384.68Z" fill="#4B4453"/>
<path d="M397.311 97.2898H405.503V142.09H397.311V97.2898Z" fill="#4B4453"/>
<path d="M434.634 123.21H426.314V142.09H418.122V97.2898H426.314V116.042H434.89L447.754 97.2898H456.586L441.29 118.986L457.162 142.09H447.754L434.634 123.21Z" fill="#4B4453"/>
<path d="M482.636 96.6498C486.646 96.6498 490.145 97.4392 493.132 99.0178C496.118 100.596 498.422 102.943 500.044 106.058C501.708 109.13 502.54 112.863 502.54 117.258V142.09H494.22V130.57H470.924V142.09H462.732V117.258C462.732 112.863 463.542 109.13 465.164 106.058C466.828 102.943 469.153 100.596 472.14 99.0178C475.126 97.4392 478.625 96.6498 482.636 96.6498ZM494.22 123.594V116.49C494.22 112.351 493.196 109.236 491.148 107.146C489.1 105.012 486.241 103.946 482.572 103.946C478.902 103.946 476.044 105.012 473.996 107.146C471.948 109.236 470.924 112.351 470.924 116.49V123.594H494.22Z" fill="#4B4453"/>
<path d="M17.0087 39.0038H8.6887V57.8838H0.496704V13.0838H8.6887V31.8358H17.2647L30.1287 13.0838H38.9607L23.6647 34.7798L39.5367 57.8838H30.1287L17.0087 39.0038Z" fill="#4B4453"/>
<path d="M65.7952 58.5238C61.2299 58.5238 57.1125 57.5425 53.4432 55.5798C49.7739 53.5745 46.8939 50.8225 44.8032 47.3238C42.7125 43.7825 41.6672 39.8358 41.6672 35.4838C41.6672 31.1318 42.7125 27.2065 44.8032 23.7078C46.8939 20.1665 49.7739 17.4145 53.4432 15.4518C57.1125 13.4465 61.2299 12.4438 65.7952 12.4438C70.3605 12.4438 74.4779 13.4465 78.1472 15.4518C81.8165 17.4145 84.6965 20.1452 86.7872 23.6438C88.8779 27.1425 89.9232 31.0892 89.9232 35.4838C89.9232 39.8785 88.8779 43.8252 86.7872 47.3238C84.6965 50.8225 81.8165 53.5745 78.1472 55.5798C74.4779 57.5425 70.3605 58.5238 65.7952 58.5238ZM65.7952 51.2278C68.7819 51.2278 71.4699 50.5665 73.8592 49.2438C76.2485 47.8785 78.1259 46.0012 79.4912 43.6118C80.8565 41.1798 81.5392 38.4705 81.5392 35.4838C81.5392 32.4972 80.8565 29.8092 79.4912 27.4198C78.1259 24.9878 76.2485 23.1105 73.8592 21.7878C71.4699 20.4225 68.7819 19.7398 65.7952 19.7398C62.8085 19.7398 60.1205 20.4225 57.7312 21.7878C55.3419 23.1105 53.4645 24.9878 52.0992 27.4198C50.7339 29.8092 50.0512 32.4972 50.0512 35.4838C50.0512 38.4705 50.7339 41.1798 52.0992 43.6118C53.4645 46.0012 55.3419 47.8785 57.7312 49.2438C60.1205 50.5665 62.8085 51.2278 65.7952 51.2278Z" fill="#4B4453"/>
<path d="M119.282 12.4438C123.164 12.4438 126.556 13.2332 129.458 14.8118C132.359 16.3478 134.599 18.6092 136.178 21.5958C137.799 24.5825 138.61 28.2092 138.61 32.4758V57.8838H130.226V31.7078C130.226 27.7825 129.244 24.8172 127.282 22.8118C125.362 20.7638 122.695 19.7398 119.282 19.7398C115.826 19.7398 113.116 20.7638 111.154 22.8118C109.191 24.8172 108.21 27.7825 108.21 31.7078V57.8838H94.6417L94.5777 50.8438H99.8897V32.4758C99.8897 28.2092 100.679 24.5825 102.258 21.5958C103.879 18.5665 106.14 16.2838 109.042 14.7478C111.986 13.2118 115.399 12.4438 119.282 12.4438Z" fill="#4B4453"/>
<path d="M170.733 58.5238C166.167 58.5238 162.05 57.5425 158.381 55.5798C154.711 53.5745 151.831 50.8225 149.741 47.3238C147.65 43.7825 146.605 39.8358 146.605 35.4838C146.605 31.1318 147.65 27.2065 149.741 23.7078C151.831 20.1665 154.711 17.4145 158.381 15.4518C162.05 13.4465 166.167 12.4438 170.733 12.4438C175.298 12.4438 179.415 13.4465 183.085 15.4518C186.754 17.4145 189.634 20.1452 191.725 23.6438C193.815 27.1425 194.861 31.0892 194.861 35.4838C194.861 39.8785 193.815 43.8252 191.725 47.3238C189.634 50.8225 186.754 53.5745 183.085 55.5798C179.415 57.5425 175.298 58.5238 170.733 58.5238ZM170.733 51.2278C173.719 51.2278 176.407 50.5665 178.797 49.2438C181.186 47.8785 183.063 46.0012 184.429 43.6118C185.794 41.1798 186.477 38.4705 186.477 35.4838C186.477 32.4972 185.794 29.8092 184.429 27.4198C183.063 24.9878 181.186 23.1105 178.797 21.7878C176.407 20.4225 173.719 19.7398 170.733 19.7398C167.746 19.7398 165.058 20.4225 162.669 21.7878C160.279 23.1105 158.402 24.9878 157.037 27.4198C155.671 29.8092 154.989 32.4972 154.989 35.4838C154.989 38.4705 155.671 41.1798 157.037 43.6118C158.402 46.0012 160.279 47.8785 162.669 49.2438C165.058 50.5665 167.746 51.2278 170.733 51.2278Z" fill="#4B4453"/>
<path d="M245.211 57.8838L245.147 28.1878L230.427 52.7638H226.715L211.995 28.5718V57.8838H204.123V13.0838H210.971L228.699 42.7158L246.235 13.0838H253.019L253.147 57.8838H245.211Z" fill="#4B4453"/>
<path d="M304.148 13.0838V57.8838H296.148V52.1878C293.119 56.4118 288.426 58.5238 282.068 58.5238C276.778 58.5238 272.618 56.8812 269.588 53.5958C266.559 50.2678 265.044 45.5745 265.044 39.5158V13.0838H273.364V39.1958C273.364 43.1638 274.303 46.1718 276.18 48.2198C278.1 50.2252 280.724 51.2278 284.052 51.2278C287.636 51.2278 290.495 50.1612 292.628 48.0278C294.762 45.8518 295.828 42.6305 295.828 38.3638V13.0838H304.148Z" fill="#4B4453"/>
<path d="M354.898 13.0838V57.8838H346.898V52.1878C343.869 56.4118 339.176 58.5238 332.818 58.5238C327.528 58.5238 323.368 56.8812 320.338 53.5958C317.309 50.2678 315.794 45.5745 315.794 39.5158V13.0838H324.114V39.1958C324.114 43.1638 325.053 46.1718 326.93 48.2198C328.85 50.2252 331.474 51.2278 334.802 51.2278C338.386 51.2278 341.245 50.1612 343.378 48.0278C345.512 45.8518 346.578 42.6305 346.578 38.3638V13.0838H354.898ZM335.698 10.0758C331.858 10.0758 328.957 9.2865 326.994 7.70784C325.074 6.12917 324.093 3.82517 324.05 0.795837H329.874C329.917 2.3745 330.429 3.5905 331.41 4.44384C332.392 5.29717 333.821 5.72383 335.698 5.72383C337.533 5.72383 338.962 5.29717 339.986 4.44384C341.053 3.5905 341.608 2.3745 341.65 0.795837H347.41C347.368 3.7825 346.344 6.0865 344.338 7.70784C342.376 9.2865 339.496 10.0758 335.698 10.0758Z" fill="#4B4453"/>
<path d="M387.792 58.5238C383.27 58.5238 379.174 57.5425 375.504 55.5798C371.878 53.5745 369.019 50.8225 366.928 47.3238C364.88 43.8252 363.856 39.8785 363.856 35.4838C363.856 31.0892 364.902 27.1425 366.992 23.6438C369.083 20.1452 371.942 17.4145 375.568 15.4518C379.238 13.4465 383.334 12.4438 387.856 12.4438C391.526 12.4438 394.875 13.0838 397.904 14.3638C400.934 15.6438 403.494 17.4998 405.584 19.9318L400.208 24.9878C396.966 21.4892 392.976 19.7398 388.24 19.7398C385.168 19.7398 382.416 20.4225 379.984 21.7878C377.552 23.1105 375.654 24.9665 374.288 27.3558C372.923 29.7452 372.24 32.4545 372.24 35.4838C372.24 38.5132 372.923 41.2225 374.288 43.6118C375.654 46.0012 377.552 47.8785 379.984 49.2438C382.416 50.5665 385.168 51.2278 388.24 51.2278C392.976 51.2278 396.966 49.4572 400.208 45.9158L405.584 51.0358C403.494 53.4678 400.912 55.3238 397.84 56.6038C394.811 57.8838 391.462 58.5238 387.792 58.5238Z" fill="#4B4453"/>
<path d="M433.605 26.8438C436.933 26.8438 439.855 27.4625 442.373 28.6998C444.933 29.9372 446.917 31.7505 448.325 34.1398C449.775 36.4865 450.501 39.3025 450.501 42.5878C450.501 47.6652 448.794 51.6332 445.381 54.4918C442.01 57.3078 437.231 58.7158 431.045 58.7158C424.901 58.7158 420.207 57.3078 416.965 54.4918C413.765 51.6332 412.165 47.4945 412.165 42.0758V13.0838H420.357V30.0438C424.922 27.9105 429.338 26.8438 433.605 26.8438ZM431.365 51.9318C434.735 51.9318 437.359 51.1212 439.237 49.4998C441.157 47.8785 442.117 45.6598 442.117 42.8438C442.117 39.8998 441.114 37.5958 439.109 35.9318C437.103 34.2678 434.543 33.4358 431.429 33.4358C429.594 33.4358 427.717 33.7558 425.797 34.3958C423.877 35.0358 422.063 35.9745 420.357 37.2118V41.8198C420.357 45.0625 421.317 47.5585 423.237 49.3078C425.157 51.0572 427.866 51.9318 431.365 51.9318Z" fill="#4B4453"/>
<path d="M475.571 39.0038H467.251V57.8838H459.059V13.0838H467.251V31.8358H475.827L488.691 13.0838H497.523L482.227 34.7798L498.099 57.8838H488.691L475.571 39.0038Z" fill="#4B4453"/>
<path d="M523.573 12.4438C527.584 12.4438 531.083 13.2332 534.069 14.8118C537.056 16.3905 539.36 18.7372 540.981 21.8518C542.645 24.9238 543.477 28.6572 543.477 33.0518V57.8838H535.157V46.3638H511.861V57.8838H503.669V33.0518C503.669 28.6572 504.48 24.9238 506.101 21.8518C507.765 18.7372 510.091 16.3905 513.077 14.8118C516.064 13.2332 519.563 12.4438 523.573 12.4438ZM535.157 39.3878V32.2838C535.157 28.1452 534.133 25.0305 532.085 22.9398C530.037 20.8065 527.179 19.7398 523.509 19.7398C519.84 19.7398 516.981 20.8065 514.933 22.9398C512.885 25.0305 511.861 28.1452 511.861 32.2838V39.3878H535.157Z" fill="#4B4453"/>
</svg>
