<svg width="44" height="47" viewBox="0 0 44 47" fill="none" xmlns="http://www.w3.org/2000/svg">
<g clip-path="url(#clip0_104_1593)">
<path d="M17.6815 38.9972H24.5148C24.5148 40.8306 22.9773 42.3306 21.0981 42.3306C19.219 42.3306 17.6815 40.8306 17.6815 38.9972ZM36.4731 35.6639V37.3306H5.72314V35.6639L9.13981 32.3306V22.3306C9.13981 17.1639 12.5565 12.6639 17.6815 11.1639V10.6639C17.6815 8.83057 19.219 7.33057 21.0981 7.33057C22.9773 7.33057 24.5148 8.83057 24.5148 10.6639V11.1639C29.6398 12.6639 33.0565 17.1639 33.0565 22.3306V32.3306L36.4731 35.6639ZM29.6398 22.3306C29.6398 17.6639 25.8815 13.9972 21.0981 13.9972C16.3148 13.9972 12.5565 17.6639 12.5565 22.3306V33.9972H29.6398V22.3306Z" fill="black"/>
</g>
<path d="M33.5981 20.0044C39.121 20.0044 43.5981 15.5272 43.5981 10.0044C43.5981 4.48155 39.121 0.00439453 33.5981 0.00439453C28.0753 0.00439453 23.5981 4.48155 23.5981 10.0044C23.5981 15.5272 28.0753 20.0044 33.5981 20.0044Z" fill="#4CAF50"/>
<defs>
<clipPath id="clip0_104_1593">
<rect width="43" height="43" fill="white" transform="translate(0.598145 3.99731)"/>
</clipPath>
</defs>
</svg>
